<svg xmlns="http://www.w3.org/2000/svg" viewBox="0 0 32 32">
  <title>Kopernik Harvest</title>
  <rect width="32" height="32" rx="6" fill="#1A5C28"/>
  <!-- Leaf icon: leaf bounding box x:[58,142] y:[18,114] scaled to 21×24 at position (5.5, 4) -->
  <!-- transform: translate(-9, -0.5) scale(0.25) -->
  <g transform="translate(-9, -0.5) scale(0.25)">
    <path d="M100,112 C93,100 72,90 65,74 C58,58 63,36 74,26 C80,20 91,18 100,20 Z" fill="white"/>
    <path d="M100,112 C107,100 128,90 135,74 C142,58 137,36 126,26 C120,20 109,18 100,20 Z" fill="white"/>
    <path d="M100,104 C95,94 78,86 73,72 C68,58 71,40 80,32 C85,27 93,25 100,28 Z" fill="#1A5C28"/>
    <path d="M100,104 C105,94 122,86 127,72 C132,58 129,40 120,32 C115,27 107,25 100,28 Z" fill="#1A5C28"/>
  </g>
</svg>
