<svg xmlns="http://www.w3.org/2000/svg" viewBox="0 0 200 230" width="200" height="230">
  <title>Kopernik Harvest</title>
  <!-- Left leaf -->
  <path d="M100,112 C93,100 72,90 65,74 C58,58 63,36 74,26 C80,20 91,18 100,20 Z" fill="#1A5C28"/>
  <!-- Right leaf -->
  <path d="M100,112 C107,100 128,90 135,74 C142,58 137,36 126,26 C120,20 109,18 100,20 Z" fill="#1A5C28"/>
  <!-- Left inner vein -->
  <path d="M100,104 C95,94 78,86 73,72 C68,58 71,40 80,32 C85,27 93,25 100,28 Z" fill="#2E8B4F"/>
  <!-- Right inner vein -->
  <path d="M100,104 C105,94 122,86 127,72 C132,58 129,40 120,32 C115,27 107,25 100,28 Z" fill="#2E8B4F"/>
  <!-- Kopernik -->
  <text x="100" y="158" text-anchor="middle"
        font-family="'Arial Black','Helvetica Neue',Arial,sans-serif"
        font-size="26" font-weight="900" fill="#1A5C28" letter-spacing="0.2">Kopernik</text>
  <!-- Harvest -->
  <text x="100" y="188" text-anchor="middle"
        font-family="'Arial Black','Helvetica Neue',Arial,sans-serif"
        font-size="26" font-weight="900" fill="#1A5C28" letter-spacing="0.2">Harvest</text>
</svg>
